<?xml version="1.0" encoding="UTF-8"?>
<svg id="_レイヤー_1" data-name="レイヤー 1" xmlns="http://www.w3.org/2000/svg" viewBox="0 0 230.49 17.88">
  <path d="m0,5.23c2.72-.89,4.16-1.7,5.86-1.87,8.04-.8,16.11-1.84,24.25-2.03C58.05.69,86.02.12,113.99,0c21.29-.08,42.6.51,63.88.94,9.12.18,18.21.66,27.31,1.08,5.2.24,10.43.48,15.52,1.01,8.36.87,12.74,6.64,7.56,9.73-.64.38-1.86.7-2.87.74-5.7.27-10.23,2.68-16.39,2.06-7.93,2.42-17.16,1.2-25.68,1.84-12.13.92-24.81.2-37.25.15-18.82-.08-37.67.15-56.44-.38-18.29-.52-36.42.46-54.62.45-6.89,0-13.84-.4-20.65-.95-3.76-.3-6.16-1.12-6.02-3.76.14-2.61-.06-6.03-8.34-7.69Z"/>
</svg>